<svg width="40" height="40" viewBox="0 0 40 40" fill="none" xmlns="http://www.w3.org/2000/svg">
  <!-- Coffee Cup -->
  <path d="M8 14C8 12.8954 8.89543 12 10 12H28C29.1046 12 30 12.8954 30 14V24C30 27.3137 27.3137 30 24 30H14C10.6863 30 8 27.3137 8 24V14Z" fill="#8B4513"/>
  
  <!-- Coffee Surface -->
  <ellipse cx="19" cy="15" rx="10" ry="2" fill="#6B3410"/>
  
  <!-- Coffee Cup Handle -->
  <path d="M30 16C32.2091 16 34 17.7909 34 20C34 22.2091 32.2091 24 30 24" stroke="#8B4513" stroke-width="2" fill="none"/>
  
  <!-- Steam Lines -->
  <path d="M15 8C15 6 16 4 16 4" stroke="#D4D4D4" stroke-width="1.5" stroke-linecap="round" opacity="0.8"/>
  <path d="M19 8C19 6 20 4 20 4" stroke="#D4D4D4" stroke-width="1.5" stroke-linecap="round" opacity="0.8"/>
  <path d="M23 8C23 6 24 4 24 4" stroke="#D4D4D4" stroke-width="1.5" stroke-linecap="round" opacity="0.8"/>
  
  <!-- Coffee Bean Accent -->
  <ellipse cx="19" cy="15" rx="3" ry="1.5" fill="#5D2A0A"/>
  <path d="M19 13.5C19 13.5 18 14.5 18 15.5C18 16.5 19 17.5 19 17.5C19 17.5 20 16.5 20 15.5C20 14.5 19 13.5 19 13.5Z" fill="#8B4513"/>
</svg>
